<?xml version="1.0" standalone="no"?><!DOCTYPE svg PUBLIC "-//W3C//DTD SVG 1.1//EN" "http://www.w3.org/Graphics/SVG/1.1/DTD/svg11.dtd"><svg t="1725246299998" class="icon" viewBox="0 0 1158 1024" version="1.1" xmlns="http://www.w3.org/2000/svg" p-id="8988" xmlns:xlink="http://www.w3.org/1999/xlink" width="226.171875" height="200"><path d="M1158.295082 218.850623c-0.067148-50.998557-35.03423-95.181639-84.337312-106.596721L603.454951 2.786623a107.687869 107.687869 0 0 0-48.497312 0L84.45482 112.270689C35.051016 123.618623 0 167.919213 0 219.035279c0 51.099279 35.051016 95.399869 84.438033 106.76459l96.642098 22.25941v308.777967C181.080131 753.563279 289.657705 839.344262 579.214689 839.344262c289.540197 0 398.11777-85.780984 398.11777-182.507016V348.059279l96.625311-22.628722c49.303082-11.398295 84.270164-55.581377 84.337312-106.596721zM904.94741 656.837246c0 40.523541-108.577574 109.500852-325.732721 109.500852s-325.749508-68.994098-325.749509-109.500852V364.846164l301.861771 70.085246c15.947541 3.693115 32.532984 3.693115 48.497311 0l301.123148-70.085246v291.991082zM587.540984 364.846164h-16.652591L100.368787 255.328525a36.343607 36.343607 0 0 1-36.175738-36.494689c0-20.161049 16.199344-36.494689 36.175738-36.511475L570.888393 72.855082H587.540984l470.502819 109.500852a36.427541 36.427541 0 0 1 28.151607 35.588197 36.427541 36.427541 0 0 1-28.151607 35.588197L587.540984 364.846164z" fill="#17abe3" p-id="8989"></path><path d="M1044.983607 405.671869v327.344262c0 20.093902 16.92118 36.37718 37.770491 36.37718s37.770492-16.283279 37.770492-36.360393v-327.344262C1120.52459 385.594754 1103.60341 369.311475 1082.754098 369.311475s-37.770492 16.283279-37.770491 36.360394zM1082.754098 805.770492c-41.547541 0-75.540984 105.472-75.540983 145.491934C1007.213115 991.433443 1041.038689 1024 1082.754098 1024s75.540984-32.566557 75.540984-72.737574C1158.295082 911.242492 1124.301639 805.770492 1082.754098 805.770492z" fill="#17abe3" p-id="8990"></path></svg>